TITLE ""
FILE "Step1_Track51.mp3" MP3
  TRACK 01 AUDIO
    TITLE "Step1_Track51_01"
    INDEX 01 00:00:00
  TRACK 02 AUDIO
    TITLE "Step1_Track51_02"
    INDEX 01 00:00:24
  TRACK 03 AUDIO
    TITLE "Step1_Track51_03"
    INDEX 01 00:01:74
  TRACK 04 AUDIO
    TITLE "Step1_Track51_04"
    INDEX 01 00:02:52
  TRACK 05 AUDIO
    TITLE "Step1_Track51_05"
    INDEX 01 00:03:50
  TRACK 06 AUDIO
    TITLE "Step1_Track51_06"
    INDEX 01 00:03:75
  TRACK 07 AUDIO
    TITLE "Step1_Track51_07"
    INDEX 01 00:04:73
  TRACK 08 AUDIO
    TITLE "Step1_Track51_08"
    INDEX 01 00:05:11
  TRACK 09 AUDIO
    TITLE "Step1_Track51_09"
    INDEX 01 00:08:53
  TRACK 10 AUDIO
    TITLE "Step1_Track51_10"
    INDEX 01 00:08:73
  TRACK 11 AUDIO
    TITLE "Step1_Track51_11"
    INDEX 01 00:09:74
  TRACK 12 AUDIO
    TITLE "Step1_Track51_12"
    INDEX 01 00:10:07
  TRACK 13 AUDIO
    TITLE "Step1_Track51_13"
    INDEX 01 00:12:06
  TRACK 14 AUDIO
    TITLE "Step1_Track51_14"
    INDEX 01 00:12:62
  TRACK 15 AUDIO
    TITLE "Step1_Track51_15"
    INDEX 01 00:13:58
  TRACK 16 AUDIO
    TITLE "Step1_Track51_16"
    INDEX 01 00:14:07
  TRACK 17 AUDIO
    TITLE "Step1_Track51_17"
    INDEX 01 00:15:02
  TRACK 18 AUDIO
    TITLE "Step1_Track51_18"
    INDEX 01 00:15:10
  TRACK 19 AUDIO
    TITLE "Step1_Track51_19"
    INDEX 01 00:16:68
  TRACK 20 AUDIO
    TITLE "Step1_Track51_20"
    INDEX 01 00:17:11
  TRACK 21 AUDIO
    TITLE "Step1_Track51_21"
    INDEX 01 00:18:12
  TRACK 22 AUDIO
    TITLE "Step1_Track51_22"
    INDEX 01 00:18:26
  TRACK 23 AUDIO
    TITLE "Step1_Track51_23"
    INDEX 01 00:20:52
  TRACK 24 AUDIO
    TITLE "Step1_Track51_24"
    INDEX 01 00:21:36
  TRACK 25 AUDIO
    TITLE "Step1_Track51_25"
    INDEX 01 00:22:39
  TRACK 26 AUDIO
    TITLE "Step1_Track51_26"
    INDEX 01 00:22:43
  TRACK 27 AUDIO
    TITLE "Step1_Track51_27"
    INDEX 01 00:23:41
  TRACK 28 AUDIO
    TITLE "Step1_Track51_28"
    INDEX 01 00:23:45
  TRACK 29 AUDIO
    TITLE "Step1_Track51_29"
    INDEX 01 00:25:42
  TRACK 30 AUDIO
    TITLE "Step1_Track51_30"
    INDEX 01 00:25:65
  TRACK 31 AUDIO
    TITLE "Step1_Track51_31"
    INDEX 01 00:26:66
  TRACK 32 AUDIO
    TITLE "Step1_Track51_32"
    INDEX 01 00:27:13
  TRACK 33 AUDIO
    TITLE "Step1_Track51_33"
    INDEX 01 00:29:59
  TRACK 34 AUDIO
    TITLE "Step1_Track51_34"
    INDEX 01 00:30:43
  TRACK 35 AUDIO
    TITLE "Step1_Track51_35"
    INDEX 01 00:31:44
  TRACK 36 AUDIO
    TITLE "Step1_Track51_36"
    INDEX 01 00:31:66
  TRACK 37 AUDIO
    TITLE "Step1_Track51_37"
    INDEX 01 00:32:67
  TRACK 38 AUDIO
    TITLE "Step1_Track51_38"
    INDEX 01 00:32:75
  TRACK 39 AUDIO
    TITLE "Step1_Track51_39"
    INDEX 01 00:34:35
  TRACK 40 AUDIO
    TITLE "Step1_Track51_40"
    INDEX 01 00:34:50
  TRACK 41 AUDIO
    TITLE "Step1_Track51_41"
    INDEX 01 00:35:54
  TRACK 42 AUDIO
    TITLE "Step1_Track51_42"
    INDEX 01 00:35:64
  TRACK 43 AUDIO
    TITLE "Step1_Track51_43"
    INDEX 01 00:37:53
  TRACK 44 AUDIO
    TITLE "Step1_Track51_44"
    INDEX 01 00:38:34
  TRACK 45 AUDIO
    TITLE "Step1_Track51_45"
    INDEX 01 00:39:40
  TRACK 46 AUDIO
    TITLE "Step1_Track51_46"
    INDEX 01 00:39:69
  TRACK 47 AUDIO
    TITLE "Step1_Track51_47"
    INDEX 01 00:40:73
  TRACK 48 AUDIO
    TITLE "Step1_Track51_48"
    INDEX 01 00:41:09
  TRACK 49 AUDIO
    TITLE "Step1_Track51_49"
    INDEX 01 00:43:57
  TRACK 50 AUDIO
    TITLE "Step1_Track51_50"
    INDEX 01 00:44:12
  TRACK 51 AUDIO
    TITLE "Step1_Track51_51"
    INDEX 01 00:45:11
  TRACK 52 AUDIO
    TITLE "Step1_Track51_52"
    INDEX 01 00:45:36
  TRACK 53 AUDIO
    TITLE "Step1_Track51_53"
    INDEX 01 00:47:63
  TRACK 54 AUDIO
    TITLE "Step1_Track51_54"
    INDEX 01 00:48:33
  TRACK 55 AUDIO
    TITLE "Step1_Track51_55"
    INDEX 01 00:49:36
  TRACK 56 AUDIO
    TITLE "Step1_Track51_56"
    INDEX 01 00:49:56
  TRACK 57 AUDIO
    TITLE "Step1_Track51_57"
    INDEX 01 00:50:57
  TRACK 58 AUDIO
    TITLE "Step1_Track51_58"
    INDEX 01 00:50:75
  TRACK 59 AUDIO
    TITLE "Step1_Track51_59"
    INDEX 01 00:53:24
  TRACK 60 AUDIO
    TITLE "Step1_Track51_60"
    INDEX 01 00:53:48
  TRACK 61 AUDIO
    TITLE "Step1_Track51_61"
    INDEX 01 00:54:51
  TRACK 62 AUDIO
    TITLE "Step1_Track51_62"
    INDEX 01 00:54:69
  TRACK 63 AUDIO
    TITLE "Step1_Track51_63"
    INDEX 01 00:57:18
  TRACK 64 AUDIO
    TITLE "Step1_Track51_64"
    INDEX 01 00:57:69
  TRACK 65 AUDIO
    TITLE "Step1_Track51_65"
    INDEX 01 00:58:72
  TRACK 66 AUDIO
    TITLE "Step1_Track51_66"
    INDEX 01 00:59:13
  TRACK 67 AUDIO
    TITLE "Step1_Track51_67"
    INDEX 01 01:00:09
  TRACK 68 AUDIO
    TITLE "Step1_Track51_68"
    INDEX 01 01:00:18
  TRACK 69 AUDIO
    TITLE "Step1_Track51_69"
    INDEX 01 01:01:53
  TRACK 70 AUDIO
    TITLE "Step1_Track51_70"
    INDEX 01 01:01:67
  TRACK 71 AUDIO
    TITLE "Step1_Track51_71"
    INDEX 01 01:02:70
  TRACK 72 AUDIO
    TITLE "Step1_Track51_72"
    INDEX 01 01:03:13
  TRACK 73 AUDIO
    TITLE "Step1_Track51_73"
    INDEX 01 01:05:14
